<svg width="112" height="106" viewBox="0 0 112 106" fill="none" xmlns="http://www.w3.org/2000/svg">
<path d="M35.5195 62.1641V28.6728L41.8557 28.3479V23.2419C44.864 23.5557 46.5481 24.0109 49.5496 25.0522C54.7233 19.4231 57.7028 19.28 63.1272 23.2418C63.1272 23.2418 67.4572 21.64 70.8211 21.4315V26.8625L75.7995 25.9573V62.1641C76.2521 72.5735 64.4849 81.1726 56.3384 80.2674C47.7393 80.72 35.9721 72.5735 35.5195 62.1641Z" fill="white"/>
<path d="M70.8211 27.0084C66.8186 28.3736 62.9319 30.8793 59.9591 33.1291C56.6916 35.6019 54.5281 37.7654 54.5281 37.7654C50.6009 32.1032 47.1649 29.8053 41.8557 29.0372V23.2828C44.9944 23.6634 47.2489 24.1694 49.5496 25.1362C53.9801 19.9659 56.8431 18.962 63.1272 23.0569C65.503 22.1475 68.162 21.4724 70.8211 21.4724V27.0084Z" fill="white"/>
<path fill-rule="evenodd" clip-rule="evenodd" d="M70.1542 20.9427C67.7316 21.0395 65.3429 21.6504 63.1908 22.452C62.253 21.8514 61.379 21.3577 60.5541 20.9739C59.1022 20.2353 57.7511 19.8782 56.3917 19.9898C56.1053 20.003 55.8225 20.0357 55.5423 20.0883C53.6796 20.4376 52.0389 21.6446 50.2742 23.5127C49.9851 23.7991 49.6911 24.1026 49.3913 24.4232C46.5679 23.4538 44.8582 23.0091 41.9112 22.7016L41.3118 22.6391V27.8319L34.9756 28.1568V62.2049C34.9756 63.5806 35.2622 65.0268 35.792 66.4791C37.024 70.1058 39.5186 73.2841 42.5325 75.7119C46.3666 78.8005 51.1134 80.7341 55.3348 80.8251C55.6673 80.8426 56.0016 80.8515 56.3376 80.8515C56.4682 80.8515 56.5983 80.8503 56.7281 80.8478C59.7694 81.0602 63.1995 80.0636 66.3227 78.2366C67.1873 77.7519 68.0067 77.2118 68.7764 76.6265C73.3341 73.1609 76.1985 68.0698 76.3366 63.4579C76.3584 63.0264 76.3605 62.5911 76.3418 62.1523V25.3065L75.4025 25.4773C74.2076 25.5622 73.0026 25.7927 71.8081 26.1309L71.3634 26.2117V20.8536L70.7867 20.8894C70.5787 20.9023 70.3675 20.9202 70.1542 20.9427ZM70.2772 26.623V22.025C70.2622 22.0255 70.2472 22.0261 70.2323 22.0267C68.7654 22.1842 67.1646 22.5671 65.8601 22.9373C65.1183 23.1478 64.4801 23.3519 64.0278 23.5033C63.8018 23.5789 63.6224 23.6413 63.5001 23.6845C63.4389 23.7062 63.392 23.723 63.3607 23.7344L63.3256 23.7472L63.3171 23.7503L63.0414 23.8523L62.882 23.7359C60.654 24.6287 58.6996 25.7141 57.2745 26.598C56.5164 27.0682 55.9102 27.4801 55.4947 27.7736C55.4766 27.7864 55.4589 27.7989 55.4416 27.8112C57.0593 29.0395 58.207 30.1591 60.0479 32.383C62.8916 30.2695 66.5135 27.9725 70.2772 26.623ZM59.1812 33.0394C57.1935 30.6413 56.0684 29.6042 54.2231 28.2589C52.3757 27.1063 50.8419 26.2687 49.3384 25.6369C47.2489 24.7588 45.1921 24.2671 42.398 23.8988V28.5716C44.9128 28.9862 47.0415 29.7662 49.0161 31.1178C50.975 32.4587 52.7551 34.3437 54.6063 36.9342C54.8606 36.6934 55.2145 36.3645 55.6552 35.9699C56.5246 35.1915 57.733 34.1565 59.1812 33.0394ZM54.9112 38.1495L54.4515 38.6092L54.081 38.0749C52.1382 35.2738 50.3415 33.3414 48.4025 32.0141C46.4706 30.6917 44.3668 29.9493 41.7771 29.5746C40.1024 29.3323 38.2263 29.244 36.0618 29.2527V45.4593C36.0618 53.624 41.1535 62.2014 47.8071 68.2472C51.1261 71.263 54.8065 73.6227 58.3855 74.9743C61.8905 76.2981 65.2532 76.6394 68.0822 75.7426C68.373 75.5183 68.6591 75.2859 68.9398 75.0459C72.4475 72.0466 75.0211 67.9203 75.2514 63.405C75.2542 63.3064 75.2556 63.2081 75.2556 63.1101V26.608L72.0545 27.1901C71.7017 27.2909 71.3485 27.402 70.9956 27.5224C67.0727 28.8604 63.2397 31.3268 60.286 33.5621C58.6666 34.7877 57.3205 35.9368 56.3797 36.7791C55.9095 37.2002 55.5409 37.5441 55.2906 37.7822C55.1655 37.9013 55.0699 37.9938 55.006 38.0562C54.974 38.0874 54.95 38.1111 54.9341 38.1268L54.9164 38.1442L54.9123 38.1484L54.9112 38.1495ZM65.8015 77.2835C63.3342 77.487 60.6723 76.9991 58.0017 75.9905C54.2711 74.5816 50.4762 72.1401 47.0767 69.0511C42.124 64.5508 37.9526 58.6201 36.0618 52.4069V62.1521C36.1224 63.5188 36.3863 64.8483 36.8193 66.1245C37.7766 68.7392 39.6005 71.4362 42.0572 73.7462C45.5517 77.0322 50.2554 79.465 55.3747 79.7395C55.6902 79.7459 56.0019 79.7412 56.309 79.725L56.3534 79.7227L56.3975 79.7276C56.5163 79.7408 56.636 79.7519 56.7565 79.7608C60.1138 79.689 63.1751 78.7576 65.8005 77.2841C65.8008 77.2839 65.8012 77.2837 65.8015 77.2835ZM50.4442 24.936C51.7157 25.5169 53.02 26.2396 54.4988 27.1517C54.5988 27.0785 54.7224 26.9893 54.8681 26.8864C55.2988 26.5822 55.9231 26.1581 56.702 25.675C58.024 24.8549 59.7974 23.8611 61.8298 22.9955C61.2081 22.5791 60.6267 22.2308 60.076 21.9496C58.6799 21.3023 57.5114 21.0294 56.4572 21.0744C56.4071 21.0787 56.3571 21.0838 56.3072 21.0897C54.7227 21.2767 53.0939 22.2529 51.0554 24.2681C50.8555 24.4798 50.652 24.7024 50.4442 24.936Z" fill="#E41F7B"/>
<path d="M65.0596 69.8555C65.4872 82.1519 47.0925 84.2935 46.7118 69.8555C29.9469 67.8083 32.5514 50.7623 42.758 47.6545C42.1235 26.3231 70.9923 29.5308 69.0134 47.6545C79.2201 50.7623 81.8245 67.8083 65.0596 69.8555Z" fill="white"/>
<path d="M43.4983 54.2752C43.7201 53.4447 44.0334 53.2626 44.873 53.3587C46.4109 54.7053 46.9955 55.497 47.1641 57.0246C47.5175 57.0733 47.1702 57.1658 47.1641 57.483C46.9543 58.49 47.0377 58.544 46.2477 58.3993C45.3123 59.7718 44.4595 59.6763 43.04 59.774C42.1171 59.0518 41.7704 58.6488 42.1235 57.9411C41.3057 57.0961 41.204 56.6786 42.1235 56.1081C42.27 54.8886 42.4988 54.3942 43.4983 54.2752Z" fill="white"/>
<path d="M66.8682 53.3589C67.7077 53.2628 68.021 53.4449 68.2429 54.2754C69.2423 54.3944 69.4712 54.8888 69.6176 56.1083C70.5371 56.6788 70.4354 57.0963 69.6176 57.9412C69.9707 58.649 69.624 59.052 68.7011 59.7742C67.2817 59.6765 66.4288 59.772 65.4935 58.3995C64.7034 58.5442 64.7869 58.49 64.577 57.483C64.571 57.1659 64.2236 57.0735 64.577 57.0248C64.7456 55.4972 65.3302 54.7055 66.8682 53.3589Z" fill="white"/>
<path fill-rule="evenodd" clip-rule="evenodd" d="M42.2066 47.2623C37.0816 49.0259 33.9058 54.1643 34.078 59.1712C34.1667 61.7522 35.1445 64.3067 37.2041 66.3458C39.1875 68.3095 42.1412 69.7635 46.1876 70.3341C46.3748 73.8259 47.6135 76.3945 49.4308 78.0744C51.3229 79.8234 53.7944 80.5643 56.2205 80.4229C60.9458 80.1475 65.5833 76.5097 65.6101 70.3305C69.643 69.7572 72.5884 68.3053 74.5676 66.3458C76.6271 64.3067 77.605 61.7522 77.6937 59.1713C77.8655 54.1744 74.7028 49.0465 69.5959 47.273C69.9706 42.7899 68.5005 39.1837 66.0483 36.6323C63.5265 34.0085 59.9903 32.5242 56.4215 32.3165C52.8513 32.1088 49.2113 33.1775 46.5004 35.7097C43.8495 38.1859 42.1402 42.0116 42.2066 47.2623ZM43.2909 46.9476C43.6283 46.8673 43.9726 46.8013 44.3235 46.7505C44.3204 42.4483 45.7642 39.2909 47.9847 37.2273C50.2802 35.0938 53.3526 34.1793 56.3595 34.3255C59.3648 34.4716 62.3438 35.6783 64.468 37.8394C66.556 39.9637 67.7935 42.9865 67.4347 46.7486C67.8076 46.8022 68.173 46.8728 68.5305 46.9596C68.8137 42.8869 67.4569 39.6654 65.2652 37.385C62.9505 34.9767 59.6802 33.5942 56.3584 33.4009C53.0382 33.2077 49.7037 34.2039 47.2419 36.5034C44.8985 38.6924 43.2951 42.1101 43.2909 46.9476ZM66.3537 46.643C66.6817 43.1964 65.5525 40.4922 63.6934 38.6008C61.7805 36.6547 59.0691 35.5447 56.3068 35.4104C53.5462 35.2762 50.774 36.1178 48.7241 38.0229C46.775 39.8344 45.4303 42.653 45.41 46.6434C45.8082 46.6222 46.2138 46.6201 46.6264 46.6383C46.514 43.4819 47.598 41.0268 49.3245 39.3361C51.1282 37.57 53.5985 36.6715 56.0396 36.6413C58.4806 36.6111 60.9342 37.4494 62.6924 39.2117C64.3756 40.8991 65.3752 43.3872 65.1599 46.6376C65.5647 46.6203 65.9628 46.6224 66.3537 46.643ZM64.0861 46.3995C64.2392 43.5073 63.332 41.3909 61.9234 39.9789C60.4033 38.4551 58.2478 37.7003 56.053 37.7274C53.8583 37.7545 51.666 38.5636 50.0844 40.1122C48.6261 41.5403 47.657 43.6259 47.7063 46.3935C47.8101 46.3636 47.9123 46.3325 48.0131 46.3001C48.4185 42.0905 50.7142 39.6805 53.4721 38.8579C55.0576 38.3849 56.7685 38.4459 58.3106 38.9608C61.1808 39.9191 63.5199 42.4795 63.3449 46.1575C63.5831 46.2454 63.8302 46.3262 64.0861 46.3995ZM58.6797 40.2728C60.7048 41.2036 62.2296 43.0858 62.2668 45.6808C60.0379 44.5132 58.7977 42.594 58.6797 40.2728ZM57.5842 39.8752C57.2028 39.7712 56.8126 39.6987 56.4192 39.6588C56.6522 42.5054 57.506 44.5625 59.0112 45.9996C59.7414 46.6967 60.6416 47.2641 61.7317 47.7042C61.8302 47.7374 61.9295 47.774 62.0294 47.814L62.0275 47.8188C63.151 48.2361 64.466 48.5266 65.9922 48.6929C70.2449 48.8695 73.1475 51.2204 74.521 54.2395C75.8867 57.2413 75.7425 60.9076 73.9353 63.7326C73.4831 64.4395 72.927 65.0929 72.2654 65.6686C70.751 66.9862 68.7028 67.8798 66.1236 68.0953C66.0155 68.28 65.9246 68.4587 65.8496 68.6242C65.7466 68.8512 65.6754 69.0489 65.6309 69.1976C65.6274 69.2093 65.6241 69.2205 65.6211 69.2312C69.3873 68.6684 72.049 67.3108 73.8034 65.5739C75.6517 63.7439 76.5282 61.4589 76.6082 59.1339C76.769 54.456 73.7067 49.6511 68.8553 48.1739C67.7258 47.83 66.4953 47.6647 65.1799 47.724C65.1795 47.724 65.1792 47.724 65.1789 47.7241L65.0884 47.7285L65.0863 47.7286L65.0223 47.7317L64.9593 47.7199C64.7892 47.6879 64.6215 47.6531 64.4565 47.6155C63.7827 47.462 63.1517 47.262 62.5661 47.0186C59.3691 45.69 57.5729 43.0809 57.5842 39.8752ZM70.4821 65.6348C69.5379 66.216 68.4092 66.6509 67.0857 66.8793C67.8351 66.1774 68.9214 65.6033 70.4821 65.6348ZM71.7466 64.6745C72.0174 64.4226 72.2667 64.1554 72.4945 63.8751C69.5696 63.5952 67.8454 63.9595 66.6663 64.7015C65.3917 65.5036 64.6532 66.8018 63.7608 68.5784C64.394 74.2982 60.5279 77.9341 56.4346 78.3007C54.3692 78.4856 52.2429 77.8373 50.6367 76.2078C49.0503 74.5985 48.0212 72.0845 47.9963 68.6098C47.0968 66.8171 46.3571 65.5083 45.075 64.7015C43.896 63.9595 42.1717 63.5952 39.2468 63.8751C39.2877 63.9255 39.3294 63.9755 39.3717 64.025C39.5613 64.2467 39.7651 64.4602 39.9835 64.664C41.1283 64.3797 42.4048 64.5499 43.5396 64.992C44.7837 65.4767 45.9322 66.3166 46.6136 67.3705C47.0048 67.9756 47.249 68.6638 47.249 69.3971C47.249 69.547 47.251 69.6949 47.2548 69.841C47.3469 73.3307 48.5224 75.7554 50.1681 77.2768C51.8188 78.8026 53.9906 79.4649 56.1573 79.3386C60.4931 79.0858 64.7192 75.6915 64.5169 69.8742C64.5145 69.8053 64.5088 69.6962 64.5033 69.6004L64.4963 69.4801L64.4933 69.4317L64.4922 69.414V69.3971C64.4922 69.2532 64.5379 69.0612 64.5903 68.8861C64.6493 68.689 64.738 68.4454 64.8603 68.1756C65.1045 67.6371 65.4914 66.976 66.0644 66.3652C67.1946 65.1603 69.0176 64.1904 71.7466 64.6745ZM41.221 65.6111C42.1846 66.2115 43.3409 66.6579 44.7004 66.8869C44.247 66.5293 43.7151 66.2261 43.1453 66.0041C42.5056 65.7549 41.8442 65.618 41.221 65.6111ZM45.6959 68.1016L45.8054 68.1317C46.0086 68.4905 46.129 68.8607 46.1567 69.2321C42.3873 68.6699 39.7236 67.3118 37.9683 65.5739C36.12 63.7439 35.2434 61.4588 35.1635 59.1339C35.0027 54.456 38.065 49.6511 42.9163 48.1739C44.072 47.822 45.3333 47.6572 46.6833 47.7285L46.7484 47.7319L46.8123 47.7199C46.9825 47.6879 47.1501 47.6531 47.3152 47.6155C49.5762 47.1003 51.3598 46.0605 52.547 44.6168C53.6482 43.2778 54.2107 41.6217 54.1868 39.7923C54.5605 39.7066 54.9414 39.6539 55.3242 39.6329C55.0942 42.493 54.2398 44.5582 52.7301 45.9996C51.205 47.4556 48.9383 48.3453 45.749 48.6929C39.7038 48.9439 36.4316 53.5673 36.311 58.2134C36.2506 60.5381 36.9747 62.8924 38.5461 64.7308C40.1146 66.5658 42.4984 67.8525 45.6959 68.1016ZM45.3767 49.8036C40.2565 50.215 37.5022 54.1849 37.3968 58.2416C37.3768 59.0108 37.4527 59.7798 37.6255 60.525C37.7507 60.5006 37.8877 60.4723 38.0359 60.4416C38.0679 60.4351 38.1003 60.4283 38.1333 60.4216C38.3893 60.3688 38.6732 60.3111 38.9636 60.2609C38.8229 59.3838 38.6456 57.593 39.1344 55.8148C39.465 54.6123 40.1071 53.3905 41.2915 52.4729C42.3462 51.6557 43.7881 51.1131 45.7256 51.0033C45.6038 50.6157 45.4874 50.2159 45.3767 49.8036ZM46.087 52.0747C44.1609 52.1336 42.8513 52.6385 41.9567 53.3315C41.0031 54.0703 40.467 55.065 40.1817 56.1027C39.7419 57.7027 39.9149 59.3449 40.0405 60.115C41.018 60.0832 41.9084 60.1188 42.7223 60.2148L42.7054 60.2016C42.2567 59.8504 41.8498 59.5073 41.6305 59.1191C41.5107 58.907 41.4403 58.6729 41.4451 58.4143C41.4473 58.2941 41.4656 58.177 41.4964 58.063C41.3818 57.9328 41.2799 57.8044 41.1961 57.6775C41.0593 57.4702 40.9422 57.2246 40.9296 56.9461C40.9063 56.4308 41.2344 56.0676 41.617 55.7929C41.689 55.2873 41.7986 54.8267 42.0439 54.4707C42.2981 54.1017 42.6527 53.9005 43.0799 53.7979C43.1976 53.4843 43.3697 53.2017 43.6579 53.0142C44.0401 52.7654 44.4987 52.7691 44.9348 52.819L45.1033 52.8383L45.2308 52.95C46.0065 53.6291 46.5858 54.2049 46.9885 54.8292C47.3494 55.3885 47.5554 55.9654 47.663 56.6549C47.6864 56.675 47.7096 56.6982 47.7317 56.7247C47.8123 56.8216 47.8501 56.9275 47.8616 57.0267C48.2154 57.0874 48.5559 57.1704 48.8816 57.2737C47.8101 55.9313 46.8586 54.2076 46.087 52.0747ZM52.5563 60.2608C52.6327 60.4089 52.7024 60.5604 52.7653 60.7152C53.581 62.7232 53.2025 65.1659 51.3598 67.3245C51.1725 70.3529 51.7908 72.3499 52.7098 73.5347C53.6341 74.7264 54.9023 75.1526 56.1498 74.9764C58.6326 74.626 61.2062 71.8127 60.4047 67.3515C58.542 65.1864 58.157 62.7316 58.9761 60.7152C59.0359 60.5681 59.1019 60.4238 59.1738 60.2827C58.3978 60.6172 57.5911 60.8386 56.7692 60.9343C55.348 61.0997 53.9183 60.8871 52.5563 60.2608ZM63.2163 57.1704C63.4317 57.1137 63.653 57.0656 63.8798 57.0267C63.8913 56.9275 63.9292 56.8216 64.0098 56.7247C64.0318 56.6982 64.055 56.6752 64.0784 56.655C64.144 56.2342 64.2464 55.8554 64.3982 55.497C64.0385 56.0965 63.6427 56.6558 63.2163 57.1704ZM64.8516 54.6823C65.2484 54.1135 65.7962 53.5756 66.5105 52.9502L66.6381 52.8385L66.8066 52.8192C67.2426 52.7693 67.7013 52.7656 68.0835 53.0144C68.3717 53.2019 68.5437 53.4845 68.6615 53.798C69.0887 53.9007 69.4432 54.1019 69.6975 54.4709C69.9428 54.8269 70.0524 55.2874 70.1244 55.7931C70.507 56.0678 70.8351 56.4309 70.8118 56.9463C70.7992 57.2248 70.6821 57.4704 70.5453 57.6777C70.4615 57.8046 70.3596 57.9329 70.245 58.0632C70.2758 58.1772 70.2941 58.2943 70.2963 58.4145C70.3011 58.6731 70.2307 58.9072 70.1109 59.1193C69.8916 59.5074 69.4847 59.8506 69.036 60.2017L69.0193 60.2148C69.8947 60.1115 70.8586 60.0782 71.9239 60.1234C71.9618 59.8924 72.0042 59.5817 72.0329 59.2161C72.0975 58.3913 72.0906 57.3098 71.8205 56.2413C71.5514 55.1768 71.0274 54.1476 70.0723 53.3814C69.1797 52.6654 67.8612 52.1393 65.9032 52.0755C65.6233 53.0004 65.2689 53.8725 64.8516 54.6823ZM66.1889 51.0005C68.2011 51.1061 69.6822 51.6759 70.752 52.5342C71.9389 53.4864 72.5635 54.7484 72.8736 55.9751C73.1827 57.1977 73.1858 58.4074 73.1157 59.301C73.0843 59.7017 73.0378 60.0433 72.9956 60.3C73.2094 60.3398 73.4165 60.3821 73.6081 60.4216C73.641 60.4283 73.6735 60.435 73.7054 60.4416C73.8536 60.4722 73.9905 60.5005 74.1156 60.5249C74.5635 58.594 74.3598 56.5081 73.5323 54.6893C72.3707 52.1359 69.9813 50.1122 66.419 49.808C66.3555 50.2135 66.2786 50.6112 66.1889 51.0005ZM65.3351 49.7079C63.8419 49.5111 62.516 49.1883 61.3559 48.7238C60.4533 48.4258 59.6869 48.4953 59.0454 48.7738C58.3268 49.0858 57.7159 49.6825 57.2489 50.437L56.3253 49.8653C56.8741 48.9787 57.6379 48.2007 58.6129 47.7774C58.8068 47.6932 59.0072 47.6239 59.2136 47.5707C58.8744 47.3293 58.5569 47.0677 58.2611 46.7852C57.1354 45.7104 56.3526 44.3619 55.8706 42.7368C55.3887 44.3619 54.6059 45.7104 53.4802 46.7852C53.0823 47.1651 52.6453 47.5072 52.1689 47.8134C52.8482 47.9522 53.4108 48.2152 53.8686 48.5815C54.7653 49.2988 55.164 50.336 55.3189 51.3274C55.474 52.32 55.3952 53.3259 55.2837 54.0694C55.2514 54.2841 55.2162 54.4792 55.1821 54.6486H56.7871V55.7348H53.7701L53.9748 55.0389L53.9756 55.0361L53.9794 55.0228C53.9829 55.0103 53.9882 54.9909 53.9951 54.965C54.0089 54.9131 54.0288 54.8353 54.0521 54.7355C54.0986 54.5357 54.1583 54.2495 54.2095 53.9083C54.3127 53.2199 54.3771 52.3355 54.2458 51.4951C54.1143 50.6537 53.797 49.9152 53.1901 49.4296C52.6004 48.9579 51.6434 48.6505 50.0678 48.8459C49.003 49.2388 47.8054 49.5194 46.4738 49.6989C46.6327 50.2762 46.8026 50.826 46.9827 51.349C49.278 58.0146 53.1651 60.2602 56.6436 59.8553C60.1914 59.4424 63.6358 56.254 64.9727 51.3821C65.1206 50.8433 65.2423 50.2847 65.3351 49.7079ZM73.8029 61.5703C73.7003 61.5497 73.5934 61.5276 73.4847 61.5052C73.4529 61.4986 73.4209 61.492 73.3888 61.4854C72.884 61.3814 72.341 61.2735 71.8615 61.2315L71.8636 61.208C68.5505 61.0695 66.4076 61.7332 64.8886 62.7965C63.3349 63.8841 62.365 65.4352 61.4786 67.1865C62.3542 72.1368 59.4887 75.6021 56.3016 76.052C54.6814 76.2807 53.0227 75.7103 51.8515 74.2004C50.7109 72.7298 50.0734 70.4246 50.2782 67.2171C49.3969 65.4716 48.4358 63.923 46.9013 62.8308C45.3788 61.7471 43.2256 61.0681 39.8778 61.208L39.8798 61.2315C39.4004 61.2735 38.8574 61.3814 38.3526 61.4854C38.3205 61.492 38.2885 61.4986 38.2567 61.5052C38.1479 61.5276 38.041 61.5497 37.9383 61.5703C38.1028 62.0148 38.3047 62.4459 38.5444 62.8579C41.9222 62.4596 44.0914 62.799 45.6536 63.7822C47.2571 64.7913 48.1173 66.4228 49.0247 68.2376L49.082 68.3523V68.4805C49.082 71.8123 50.052 74.0674 51.4102 75.4453C52.7682 76.823 54.5655 77.3775 56.3378 77.2188C59.8806 76.9015 63.3114 73.7305 62.6635 68.5479L62.6431 68.3847L62.7167 68.2376C63.6241 66.4228 64.4843 64.7913 66.0878 63.7822C67.65 62.799 69.8192 62.4596 73.1969 62.8579C73.4366 62.4458 73.6385 62.0147 73.8029 61.5703ZM50.9305 66.115C52.1891 64.3708 52.3437 62.5635 51.7589 61.124C51.1465 59.6165 49.6847 58.4159 47.597 58.0837C47.5885 58.1243 47.5802 58.1619 47.5723 58.1958C47.5392 58.3359 47.4833 58.5547 47.3357 58.7267C47.1435 58.9505 46.8929 59.0009 46.6971 59.0018C46.6317 59.002 46.5619 58.9968 46.4901 58.9883C46.445 59.0458 46.3998 59.1009 46.3543 59.1536C48.0173 59.0169 49.4681 59.5149 50.3275 60.6361C51.2339 61.8185 51.3578 63.5304 50.5945 65.5075C50.71 65.7084 50.8217 65.9111 50.9305 66.115ZM49.8404 64.3173C50.1886 62.966 49.9686 61.9532 49.4655 61.2969C48.8215 60.4568 47.5695 60.0115 45.8839 60.3089L45.7749 59.691C45.528 59.8681 45.2683 59.9945 44.9887 60.0826C44.5103 60.2333 43.9774 60.2634 43.4445 60.2935C43.4064 60.2956 43.3683 60.2978 43.3303 60.3C45.0595 60.5819 46.4213 61.1559 47.5312 61.9459C48.474 62.617 49.2161 63.4313 49.8404 64.3173ZM46.524 56.4814C46.4293 56.0779 46.2853 55.7427 46.0758 55.4181C45.9071 55.1565 45.6911 54.894 45.4105 54.6046C45.3917 54.977 45.3556 55.4099 45.2897 55.8726C45.4585 56.0688 45.7307 56.2425 46.3479 56.4814H46.524ZM45.5776 57.3388C45.384 57.2531 45.2112 57.1656 45.0562 57.0711C45.0331 57.1624 45.0086 57.254 44.9825 57.3457C45.0867 57.3647 45.1796 57.3725 45.2686 57.372C45.3641 57.3714 45.4639 57.3612 45.5776 57.3388ZM44.3287 54.4866C44.3348 54.3525 44.3386 54.2272 44.3406 54.1127C44.342 54.0336 44.3427 53.9598 44.3427 53.8919C44.2925 53.9016 44.2657 53.9146 44.2503 53.9246C44.2256 53.9407 44.1691 53.9894 44.0989 54.1746L44.3287 54.4866ZM43.2637 54.8723C43.0761 54.9283 42.9942 55.006 42.9384 55.087C42.8565 55.2058 42.7896 55.3916 42.7313 55.7084L44.1395 56.0854C44.1272 56.0613 44.1152 56.037 44.1034 56.0125L43.2637 54.8723ZM43.6436 57.0771L42.2216 56.6964C42.1315 56.7634 42.0761 56.8168 42.0434 56.8573C42.0248 56.8804 42.0175 56.8945 42.015 56.9C42.0168 56.9128 42.0286 56.967 42.1026 57.0791C42.1531 57.1556 42.2224 57.244 42.314 57.3479L43.6436 57.0771ZM42.5325 58.4119C42.5316 58.4202 42.5312 58.4276 42.5311 58.4343C42.5304 58.4729 42.5382 58.5174 42.5762 58.5848C42.6413 58.7 42.7662 58.8373 42.986 59.0283C43.1804 58.7839 43.3493 58.5102 43.4955 58.2158L42.5325 58.4119ZM44.2264 59.1409C44.3749 58.8947 44.5043 58.6385 44.6172 58.3783C44.8385 58.4312 45.0535 58.4595 45.2753 58.4581C45.3619 58.4576 45.4474 58.4526 45.5325 58.4435C45.228 58.7964 44.9495 58.9561 44.6623 59.0466C44.524 59.0901 44.3817 59.1194 44.2264 59.1409ZM60.8109 66.115C60.9197 65.9111 61.0314 65.7084 61.1469 65.5075C60.3836 63.5304 60.5075 61.8185 61.4139 60.6361C62.2733 59.5149 63.724 59.0169 65.387 59.1536C65.3415 59.1009 65.2963 59.0459 65.2513 58.9884C65.1795 58.9969 65.1096 59.0022 65.0442 59.0019C64.8484 59.0011 64.5977 58.9506 64.4056 58.7267C64.258 58.5547 64.2021 58.3359 64.1691 58.1958C64.1611 58.1619 64.1529 58.1243 64.1444 58.0838C62.0567 58.4159 60.5949 59.6165 59.9825 61.1241C59.3977 62.5635 59.5523 64.3708 60.8109 66.115ZM66.2088 58.4436C66.5134 58.7966 66.7919 58.9563 67.0791 59.0468C67.2174 59.0903 67.3597 59.1196 67.515 59.141C67.3665 58.8949 67.2371 58.6387 67.1242 58.3785C66.9029 58.4314 66.6879 58.4597 66.4661 58.4583C66.3795 58.4578 66.294 58.4527 66.2088 58.4436ZM68.2459 58.216C68.392 58.5104 68.561 58.7841 68.7554 59.0285C68.9752 58.8375 69.1001 58.7002 69.1651 58.585C69.2032 58.5176 69.211 58.4731 69.2103 58.4345C69.2101 58.4278 69.2097 58.4203 69.2089 58.4121L68.2459 58.216ZM69.4274 57.3481C69.519 57.2442 69.5883 57.1558 69.6388 57.0793C69.7128 56.9671 69.7246 56.9129 69.7264 56.9001C69.7239 56.8947 69.7166 56.8806 69.698 56.8575C69.6653 56.817 69.6099 56.7636 69.5198 56.6966L68.0978 57.0773L69.4274 57.3481ZM67.6018 56.0856L69.0101 55.7086C68.9518 55.3918 68.8849 55.206 68.803 55.0872C68.7472 55.0062 68.6652 54.9285 68.4777 54.8724L67.638 56.0126C67.6262 56.0372 67.6142 56.0615 67.6018 56.0856ZM67.4127 54.4868L67.6425 54.1748C67.5723 53.9896 67.5158 53.9408 67.491 53.9247C67.4757 53.9148 67.4489 53.9017 67.3987 53.8921C67.3987 53.96 67.3993 54.0338 67.4008 54.1129C67.4028 54.2274 67.4066 54.3526 67.4127 54.4868ZM66.3309 54.6048C66.3497 54.9772 66.3857 55.4101 66.4516 55.8728C66.2829 56.069 66.0107 56.2427 65.3935 56.4815H65.2174C65.3121 56.078 65.4561 55.7429 65.6656 55.4183C65.8343 55.1567 66.0503 54.8942 66.3309 54.6048ZM66.1637 57.3389C66.2774 57.3613 66.3773 57.3716 66.4728 57.3721C66.5618 57.3727 66.6546 57.3649 66.7589 57.3459C66.7328 57.2542 66.7083 57.1626 66.6852 57.0713C66.5302 57.1658 66.3574 57.2533 66.1637 57.3389ZM65.9665 59.6912L65.8575 60.3089C64.1719 60.0115 62.9199 60.4568 62.2759 61.2969C61.7728 61.9532 61.5528 62.966 61.901 64.3173C62.5375 63.414 63.2964 62.5852 64.2657 61.9067C65.3655 61.1368 66.7105 60.5773 68.4103 60.3001C68.3725 60.2979 68.3347 60.2958 68.2969 60.2936C67.764 60.2636 67.231 60.2335 66.7527 60.0828C66.473 59.9947 66.2134 59.8683 65.9665 59.6912ZM53.0974 40.147C51.2047 40.9604 49.6089 42.7652 49.1608 45.8513C50.223 45.3533 51.0743 44.6975 51.7081 43.9269C52.5682 42.881 53.0493 41.5977 53.0974 40.147ZM50.9321 51.8762C50.5191 51.7143 50.2504 51.579 50.043 51.4291C49.8254 51.2718 49.6515 51.0811 49.454 50.7739L48.6927 51.2633C48.4715 51.1011 48.2412 50.9055 47.996 50.6733L47.249 51.4619C48.4394 52.5894 49.5214 53.1218 50.9216 52.972C51.7762 52.8805 52.709 52.5384 53.8118 52.0168L53.3473 51.0349C52.3398 51.5115 51.5746 51.7851 50.9321 51.8762ZM64.0341 51.4619C62.8437 52.5894 61.7617 53.1218 60.3616 52.972C59.5069 52.8805 58.5741 52.5384 57.4714 52.0168L57.9358 51.0349C58.9433 51.5115 59.7085 51.7851 60.3511 51.8762C60.764 51.7143 61.0327 51.579 61.2402 51.4291C61.4577 51.2718 61.6316 51.0811 61.8291 50.7739L62.5904 51.2633C62.8116 51.1011 63.042 50.9055 63.2872 50.6733L64.0341 51.4619ZM53.9785 57.5697L53.906 57.5515L54.1695 56.4978C55.1119 56.7334 55.4948 56.8252 55.8707 56.8252C56.2465 56.8252 56.6294 56.7334 57.5719 56.4978L57.8353 57.5515L57.7628 57.5697C56.9156 57.7816 56.3964 57.9114 55.8707 57.9114C55.3449 57.9114 54.8258 57.7816 53.9785 57.5697Z" fill="#E41F7B"/>
<path d="M59.9943 36.4041C59.9943 38.6818 58.1479 40.5282 55.8702 40.5282C53.5925 40.5282 51.7461 38.6818 51.7461 36.4041C51.7461 34.1265 53.5925 32.28 55.8702 32.28C58.1479 32.28 59.9943 34.1265 59.9943 36.4041Z" fill="white"/>
<path fill-rule="evenodd" clip-rule="evenodd" d="M55.8702 39.442C57.548 39.442 58.9081 38.0819 58.9081 36.4041C58.9081 34.7263 57.548 33.3662 55.8702 33.3662C54.1924 33.3662 52.8323 34.7263 52.8323 36.4041C52.8323 38.0819 54.1924 39.442 55.8702 39.442ZM55.8702 40.5282C58.1479 40.5282 59.9943 38.6818 59.9943 36.4041C59.9943 34.1265 58.1479 32.28 55.8702 32.28C53.5925 32.28 51.7461 34.1265 51.7461 36.4041C51.7461 38.6818 53.5925 40.5282 55.8702 40.5282Z" fill="#E41F7B"/>
<path d="M57.3114 35.9457C57.3114 36.958 56.4907 37.7787 55.4784 37.7787C54.4661 37.7787 53.6455 36.958 53.6455 35.9457C53.6455 34.9334 54.4661 34.1128 55.4784 34.1128C56.4907 34.1128 57.3114 34.9334 57.3114 35.9457Z" fill="white"/>
<path fill-rule="evenodd" clip-rule="evenodd" d="M55.4784 36.6925C55.8909 36.6925 56.2252 36.3581 56.2252 35.9457C56.2252 35.5333 55.8909 35.199 55.4784 35.199C55.066 35.199 54.7317 35.5333 54.7317 35.9457C54.7317 36.3581 55.066 36.6925 55.4784 36.6925ZM55.4784 37.7787C56.4907 37.7787 57.3114 36.958 57.3114 35.9457C57.3114 34.9334 56.4907 34.1128 55.4784 34.1128C54.4661 34.1128 53.6455 34.9334 53.6455 35.9457C53.6455 36.958 54.4661 37.7787 55.4784 37.7787Z" fill="#E41F7B"/>
<path fill-rule="evenodd" clip-rule="evenodd" d="M25.0682 29.9007C24.964 29.4888 24.9074 29.068 24.8941 28.6414C24.3825 29.2982 23.8899 30.0052 23.4328 30.7381C23.3096 30.9356 23.1891 31.1348 23.0717 31.3351C23.4897 31.1655 23.922 31.0431 24.3674 30.9743C24.5949 30.6121 24.8286 30.2542 25.0682 29.9007ZM25.4553 25.5872C25.266 26.0887 25.1198 26.5927 25.0237 27.0941C24.1908 28.0418 23.3915 29.1295 22.6808 30.2691C22.2979 30.883 21.9391 31.5146 21.6135 32.1503C21.0516 32.5548 20.5241 33.0444 20.0347 33.5984C20.2193 33.0852 20.4312 32.5721 20.6676 32.0639C21.3582 30.7617 22.1195 29.5027 22.9466 28.2922C23.7155 27.2811 24.564 26.3621 25.4553 25.5872ZM23.7231 32.0394C23.2357 32.2011 22.7613 32.4407 22.3035 32.7496C22.1228 33.1107 21.9541 33.4717 21.799 33.8299C22.245 33.4063 22.7213 33.091 23.2236 32.9255C23.3861 32.6276 23.5526 32.3322 23.7231 32.0394ZM22.4415 34.4422C21.7809 35.7998 21.2015 37.2041 20.7094 38.6488C20.6525 38.0557 20.7125 37.3542 20.8839 36.5704C20.909 36.5245 20.9343 36.4789 20.9596 36.4338C21.4373 35.5837 21.9396 34.9101 22.4415 34.4422ZM19.8433 38.8793C19.8997 39.3269 20.016 39.741 20.2033 40.1088L20.2536 40.0832C20.1406 40.466 20.0337 40.8514 19.9329 41.2393C19.729 40.8597 19.569 40.4528 19.4506 40.023C19.5733 39.6332 19.7045 39.2509 19.8433 38.8793ZM19.0467 41.4542C19.2057 41.7775 19.392 42.0874 19.6075 42.3817L19.6653 42.3394C19.4369 43.3457 19.2498 44.3678 19.1058 45.4036C18.839 45.6 18.59 45.8194 18.3583 46.0591C18.4103 44.6769 18.6334 43.1662 18.9905 41.6832C19.0089 41.6068 19.0276 41.5304 19.0467 41.4542ZM17.4696 47.203C17.4081 45.4458 17.6593 43.4256 18.1289 41.4758C18.2485 40.979 18.3826 40.4854 18.53 40.0004C18.385 39.3889 18.3133 38.7479 18.3058 38.0893C17.8682 39.1047 17.5075 40.1889 17.2367 41.2992C16.6558 43.6807 16.4953 46.1536 16.8583 48.2907L16.8681 48.348C17.0446 47.9446 17.2448 47.5613 17.4696 47.203ZM18.3679 47.449C18.5464 47.1884 18.7392 46.9472 18.9462 46.7273C18.9119 47.0633 18.882 47.4006 18.8568 47.7392C18.7079 47.9177 18.5733 48.1172 18.4522 48.3347C18.4135 48.0546 18.3853 47.759 18.3679 47.449ZM17.8779 49.8346C17.7754 49.5144 17.6938 49.1734 17.631 48.8169C17.4882 49.1559 17.3617 49.5138 17.2514 49.8884C17.3705 50.2463 17.5082 50.5876 17.6647 50.9101C17.7195 50.5375 17.7899 50.1771 17.8779 49.8346ZM18.7659 51.4692C18.6802 51.3747 18.5994 51.2741 18.5233 51.168C18.5073 51.2855 18.4928 51.4056 18.4798 51.5282C18.4586 51.7277 18.4414 51.932 18.4282 52.1406C18.5493 52.294 18.6768 52.4402 18.8108 52.5787C18.7904 52.2103 18.7754 51.8404 18.7659 51.4692ZM19.192 38.1058C19.454 37.4497 19.74 36.8277 20.0461 36.2565C20.0952 36.0432 20.1509 35.828 20.2125 35.6119C20.3446 35.1487 20.506 34.6734 20.6924 34.1922C20.4866 34.4258 20.2861 34.6741 20.0913 34.936C19.8431 35.2697 19.6056 35.6239 19.3797 35.9954C19.3591 36.1086 19.3401 36.2215 19.3227 36.334C19.2287 36.9433 19.1839 37.5362 19.192 38.1058ZM26.3631 25.7233L26.3471 25.7378C26.5076 25.335 26.7001 24.9287 26.9226 24.5214C26.9368 24.4954 26.9512 24.4693 26.9656 24.4433C27.3945 24.1658 27.8254 23.9269 28.2552 23.7302C28.1421 23.8749 28.0331 24.0195 27.9285 24.1636C27.7708 24.3811 27.6215 24.6 27.4825 24.8192C27.1051 25.0845 26.7302 25.3898 26.3631 25.7233ZM25.8535 27.495C26.0883 27.2346 26.325 26.9871 26.5619 26.7546C26.4284 27.209 26.3664 27.6506 26.3934 28.0694C26.1902 28.3328 25.9905 28.5991 25.7943 28.8682C25.7591 28.4239 25.7802 27.9647 25.8535 27.495ZM29.8775 23.1932C29.6552 23.434 29.4432 23.6756 29.2431 23.9166C29.592 23.8119 29.936 23.7585 30.2706 23.7663L30.2702 23.783C30.5207 23.5462 30.7745 23.3129 31.0316 23.0831C30.653 23.078 30.2674 23.1156 29.8775 23.1932ZM28.1371 25.4448C28.4892 25.2085 28.8276 25.0229 29.1473 24.8909C28.5863 25.4685 28.0441 26.0645 27.5216 26.6779C27.666 26.2923 27.8722 25.879 28.1371 25.4448ZM17.5262 52.4148C17.2968 52.0925 17.0922 51.7482 16.911 51.3855C16.597 53.266 16.6305 55.3869 16.9807 57.4683C17.2178 58.8769 17.5982 60.2577 18.1074 61.5248C18.1046 60.7856 18.1731 60.0691 18.3239 59.3934C18.1443 58.7019 17.9924 57.9915 17.8703 57.2782C17.5865 55.6217 17.4603 53.9338 17.5262 52.4148ZM18.9021 53.8392C18.7252 53.706 18.5566 53.5641 18.3962 53.414C18.4079 54.5987 18.5279 55.8683 18.7438 57.1286C18.7831 57.3582 18.8255 57.5871 18.871 57.8148C19.0049 57.5433 19.1577 57.2833 19.3305 57.0366C19.1424 55.9856 18.9989 54.9191 18.9021 53.8392ZM16.3264 49.9032C16.2487 49.6472 16.1797 49.3857 16.1192 49.1195C16.1032 49.5821 16.0951 50.0467 16.0951 50.5131C16.0951 50.6434 16.0957 50.7736 16.097 50.9036C16.1365 50.6963 16.1802 50.4916 16.2282 50.2899C16.2591 50.1599 16.2919 50.031 16.3264 49.9032ZM27.9737 22.8852C28.4509 22.6725 28.9338 22.504 29.4184 22.3869C30.2052 21.5574 31.0993 20.748 32.0425 20.0043C32.6107 19.5562 33.1991 19.1302 33.7954 18.7367C34.1356 18.134 34.5641 17.556 35.0609 17.009C33.8347 17.6094 32.6281 18.3802 31.5093 19.2678C30.151 20.3453 28.9336 21.5857 27.9737 22.8852ZM31.9575 22.2826C31.5946 22.2182 31.2285 22.1907 30.8612 22.1969C31.4036 21.6812 31.9856 21.1778 32.5912 20.7002C32.7741 20.556 32.9589 20.4144 33.1451 20.2757C33.0324 20.6745 32.9606 21.081 32.9345 21.4937C32.6043 21.7512 32.2786 22.0142 31.9575 22.2826ZM22.2262 27.7754C21.8425 28.2813 21.4789 28.8078 21.1393 29.3486C20.6703 30.0958 20.2453 30.8733 19.8755 31.6657C16.8962 37.2905 15.2088 43.7048 15.2088 50.5131C15.2088 62.618 20.5426 73.4772 28.9882 80.8685C29.5516 81.4282 30.153 81.9616 30.7811 82.4599C31.6598 83.157 32.5952 83.7887 33.5579 84.3287C36.1538 86.0191 38.9564 87.4187 41.9196 88.4812L41.9275 88.4841C42.087 88.5422 42.2473 88.5985 42.4081 88.6529C46.5224 90.0683 50.9377 90.8369 55.5325 90.8369C77.8027 90.8369 95.8563 72.7833 95.8563 50.5131C95.8563 38.8731 90.9243 28.3851 83.0361 21.0246C82.3216 20.2709 81.536 19.5607 80.7061 18.9126C80.1176 18.453 79.5048 18.0231 78.877 17.63C72.289 12.9446 64.2325 10.1894 55.5325 10.1894C41.6971 10.1894 29.489 17.1574 22.2262 27.7754ZM64.4908 88.6091C65.5849 88.4494 66.6973 88.1883 67.7847 87.837C69.3217 87.3405 70.7967 86.6678 72.0904 85.8578C71.4955 85.9123 70.9121 85.9115 70.3495 85.8474C69.4348 86.2779 68.4586 86.6614 67.4677 86.9847C66.9819 87.1432 66.4911 87.2878 66.0008 87.4165C65.5559 87.8605 65.0477 88.2575 64.4908 88.6091ZM86.167 74.866C86.9241 74.0599 87.6322 73.163 88.2647 72.211C89.6213 70.1692 90.6136 67.8985 90.9994 65.7654C91.1432 64.9708 91.2017 64.2021 91.1665 63.4747C90.9733 63.6197 90.7741 63.7533 90.5688 63.8743C90.5504 64.6829 90.3728 65.5663 90.0915 66.4642C89.5572 68.1694 88.6166 70.0289 87.486 71.7414C87.2044 72.168 86.9102 72.5867 86.6065 72.9928C86.5347 73.6171 86.384 74.2442 86.167 74.866ZM93.0062 59.7975C92.6416 60.5009 92.2306 61.1305 91.7773 61.67C91.7198 61.4621 91.6531 61.2578 91.5769 61.0576C92.0378 60.4223 92.4241 59.6295 92.7411 58.763C93.3464 57.1087 93.7396 55.0739 93.8935 53.0275C93.9478 52.3058 93.9725 51.5797 93.9659 50.8652C94.2758 50.2464 94.5158 49.568 94.6921 48.8504C94.8791 50.2031 94.9136 51.6347 94.8022 53.0586C94.6112 55.5024 93.9927 57.8944 93.0062 59.7975ZM91.9089 58.4585C91.6737 59.1013 91.4127 59.6601 91.1326 60.1238C91.1124 60.0889 91.0918 60.0543 91.0708 60.0199C91.6685 57.78 92.06 55.4559 92.2239 53.0693C92.5264 52.8295 92.8022 52.5598 93.0526 52.2643C93.0415 52.4963 93.0272 52.7287 93.0098 52.961C92.8604 54.9469 92.4797 56.8983 91.9089 58.4585ZM90.4225 62.1796C90.5876 62.0776 90.7463 61.9575 90.8986 61.8213C90.9565 62.0191 91.005 62.2218 91.0445 62.4291C90.8673 62.5872 90.685 62.7328 90.4978 62.8651C90.4656 62.6849 90.4223 62.5109 90.3671 62.3439C90.3857 62.2892 90.4041 62.2344 90.4225 62.1796ZM92.2895 51.7909C92.5874 51.4564 92.8496 51.0757 93.0767 50.6547C93.0691 50.2511 93.051 49.8532 93.0222 49.4641C92.8478 49.9754 92.6141 50.4236 92.3103 50.7824C92.3079 51.1196 92.301 51.4558 92.2895 51.7909ZM92.2756 48.8779C92.2169 47.5364 92.0863 46.2136 91.8877 44.9132C92.1535 45.3771 92.3795 45.9488 92.561 46.6118C92.5601 46.6642 92.5589 46.7164 92.5574 46.7682C92.5335 47.5789 92.438 48.2893 92.2756 48.8779ZM92.4114 44.0838C92.1701 43.737 91.896 43.4408 91.5859 43.2083C91.5118 42.8409 91.4323 42.4754 91.3474 42.112C91.6622 42.3368 91.9559 42.597 92.2286 42.889C92.3007 43.291 92.3619 43.6903 92.4114 44.0838ZM91.9222 41.4336C91.7087 41.2775 91.4855 41.1347 91.2524 41.0062C91.3906 40.7782 91.513 40.5425 91.6205 40.3C91.7076 40.599 91.7894 40.9009 91.8657 41.2043C91.8848 41.2807 91.9037 41.3572 91.9222 41.4336ZM92.0812 38.8276C92.2023 38.2157 92.2514 37.5774 92.2372 36.9238C92.8076 38.1076 93.2671 39.4013 93.5971 40.7307C93.8724 41.8398 94.056 42.9676 94.1396 44.0701C93.8275 43.4904 93.4666 42.9561 93.0546 42.4818C92.96 41.9836 92.8497 41.484 92.7252 40.9883C92.5412 40.2565 92.3253 39.5303 92.0812 38.8276ZM91.1618 38.8857C91.0703 39.2738 90.9455 39.6448 90.7854 39.9955C90.6795 39.6399 90.5683 39.2865 90.452 38.9355C90.6013 38.5816 90.69 38.191 90.7271 37.7734C90.8797 38.133 91.0248 38.5048 91.1618 38.8857ZM90.4779 35.3128C90.5159 35.3758 90.5535 35.4394 90.5907 35.5036C90.8597 35.9668 91.1143 36.4663 91.3524 36.9923C91.3433 36.4361 91.2835 35.8592 91.1766 35.2679C91.1581 35.1657 91.1382 35.0633 91.117 34.9606C90.9779 34.7547 90.8348 34.5549 90.6879 34.362C90.4155 34.0043 90.1312 33.6714 89.836 33.3664C90.0001 33.7731 90.1452 34.1752 90.2686 34.5691C90.3468 34.8185 90.4169 35.0669 90.4779 35.3128ZM89.6489 35.6557C89.7885 36.2514 89.8603 36.799 89.8613 37.2866C89.4437 36.2034 88.9762 35.1449 88.4618 34.1139C88.8665 34.5161 89.2655 35.035 89.6489 35.6557ZM87.5789 32.4526C88.0135 32.6213 88.4278 32.89 88.8198 33.2353C88.6541 32.8556 88.4716 32.4719 88.2747 32.0875C87.8676 31.8346 87.4463 31.6318 87.0124 31.4844C87.206 31.804 87.3949 32.1267 87.5789 32.4526ZM93.4489 46.5011C93.4549 45.8534 93.4196 45.1699 93.3473 44.4674C93.6186 44.968 93.854 45.5139 94.0534 46.097C94.0902 46.2046 94.1257 46.3134 94.16 46.4232C94.1323 46.8571 94.0863 47.2811 94.0213 47.692C93.9703 48.014 93.908 48.3266 93.8342 48.6287C93.7761 48.1163 93.6985 47.6208 93.6006 47.1494C93.5548 46.9293 93.5044 46.7129 93.4489 46.5011ZM86.6327 30.459C86.9344 30.5256 87.2293 30.6145 87.5173 30.724C87.3272 30.4064 87.1288 30.0911 86.9235 29.7801C86.8802 29.7145 86.8366 29.6491 86.7927 29.5839C86.7603 29.878 86.7074 30.17 86.6327 30.459ZM88.9527 31.47C89.4899 31.828 89.9959 32.2584 90.4683 32.7457C89.9664 31.4082 89.2724 30.0723 88.4419 28.8223C87.8095 27.8705 87.1015 26.9737 86.3446 26.1677C86.5616 26.7895 86.7122 27.4166 86.784 28.0409C87.0875 28.4469 87.3816 28.8654 87.6631 29.2918C88.1306 29.9999 88.5655 30.733 88.9527 31.47ZM89.6313 64.3213L89.654 64.3129C89.597 64.8825 89.4598 65.5163 89.2458 66.1992C88.7422 67.8067 87.8436 69.5911 86.7464 71.2532C86.7212 71.2914 86.6958 71.3295 86.6704 71.3676L86.6153 71.4498C86.5791 71.1215 86.5175 70.7958 86.4285 70.4742C87.6803 68.5406 88.7555 66.482 89.6313 64.3213ZM91.9922 62.7499C92.6704 62.0622 93.2564 61.2232 93.7487 60.29C93.2636 62.192 92.6402 64.0386 91.89 65.8187C92.0713 64.7677 92.1169 63.7304 91.9922 62.7499ZM85.3391 74.5491C85.153 75.0873 84.9092 75.6294 84.6136 76.1702C84.559 76.2702 84.5026 76.3699 84.4446 76.4695C84.106 76.7419 83.7623 76.994 83.4154 77.2233C83.1433 77.4032 82.8703 77.5684 82.5974 77.718C82.9364 77.329 83.2497 76.9371 83.5315 76.5465C83.663 76.3642 83.7886 76.1809 83.9074 75.9969C84.3893 75.5642 84.8698 75.0767 85.3391 74.5491ZM84.9904 73.5997C85.2472 73.2976 85.5005 72.9829 85.7485 72.6583C85.779 72.2703 85.7737 71.8879 85.7303 71.5134C85.5182 71.8179 85.3016 72.119 85.0806 72.4166C85.1159 72.7972 85.082 73.1937 84.9904 73.5997ZM81.4334 77.6823C81.1657 77.9664 80.8843 78.2485 80.5915 78.5265C80.1007 78.65 79.6165 78.7139 79.144 78.7132C79.404 78.4953 79.661 78.2738 79.9148 78.0489C80.4045 78.0409 80.9154 77.909 81.4334 77.6823ZM81.2788 76.7774C81.8456 76.4998 82.463 76.0762 83.1086 75.5194C83.1478 75.4856 83.1871 75.4514 83.2263 75.4167C83.5937 74.834 83.8632 74.2803 84.0259 73.7702C83.1658 74.8227 82.2485 75.8267 81.2788 76.7774ZM89.4229 62.3629C84.5281 76.3632 71.2031 86.4057 55.5325 86.4057C45.942 86.4057 37.23 82.6443 30.7914 76.5162L30.7895 76.4995L30.7755 76.501C30.2528 76.0029 29.7451 75.4892 29.2532 74.9607L29.2591 74.8455C29.2189 74.8434 29.1784 74.8402 29.1375 74.8359C25.1772 70.5403 22.2522 65.2757 20.7584 59.4381C20.7803 59.3951 20.8034 59.3535 20.8277 59.3136L20.7086 59.2413C20.5453 58.5876 20.3999 57.9268 20.273 57.2594C20.2881 57.241 20.3034 57.2227 20.3188 57.2045L20.252 57.148C19.8501 54.9977 19.64 52.78 19.64 50.5132C19.64 49.7068 19.6666 48.9067 19.7189 48.1136C19.7423 48.0916 19.7659 48.0705 19.7899 48.0502L19.7282 47.9775C19.7766 47.2838 19.8447 46.5955 19.932 45.9132L19.9727 45.8882L19.9418 45.8375C22.2332 28.2237 37.2943 14.6206 55.5325 14.6206C75.3554 14.6206 91.4251 30.6903 91.4251 50.5132C91.4251 54.6587 90.7223 58.6401 89.4293 62.3447L89.4171 62.3505L89.4229 62.3629ZM20.4687 61.6456C20.7434 62.5118 21.0494 63.3641 21.3853 64.2012C21.1555 63.9036 20.9322 63.5617 20.7173 63.1794C20.7055 63.1285 20.6941 63.0778 20.6831 63.0273C20.5752 62.534 20.5037 62.0717 20.4687 61.6456ZM19.5789 60.524C19.6142 60.1047 19.6937 59.7139 19.8253 59.3624C19.7433 59.0305 19.6659 58.6969 19.593 58.3616C19.4476 58.6816 19.3294 59.0227 19.2377 59.3822C19.3427 59.7718 19.4567 60.1535 19.5789 60.524ZM21.4751 65.5961C21.7119 65.8031 21.9596 65.9785 22.2181 66.1167C22.3791 66.4598 22.5452 66.8001 22.7164 67.1374C22.4514 67.0165 22.1932 66.874 21.9421 66.7114C21.7747 66.3387 21.6185 65.966 21.4751 65.5961ZM20.4743 65.4512C20.2338 64.7869 20.0339 64.132 19.8828 63.5019C19.7777 63.3101 19.6764 63.1125 19.5788 62.9102C19.3695 62.4765 19.1741 62.0144 18.9935 61.5312C18.9951 61.8423 19.0104 62.1609 19.039 62.4858C19.0755 62.9003 19.1336 63.3229 19.2119 63.7507C19.2717 63.8488 19.3324 63.9456 19.3941 64.041C19.7289 64.5585 20.0896 65.0311 20.4743 65.4512ZM22.592 68.049C22.8326 68.147 23.0793 68.2303 23.3319 68.2978C23.8326 69.2026 24.3705 70.0841 24.9433 70.9401C24.8866 71.1344 24.8408 71.3309 24.8055 71.5291C24.0479 70.5534 23.33 69.4316 22.7023 68.2577C22.6652 68.1883 22.6284 68.1187 22.592 68.049ZM24.7177 72.8207C23.6947 71.6375 22.7308 70.1906 21.9208 68.6756C21.6799 68.2249 21.4518 67.7669 21.2394 67.3066C20.7247 66.9463 20.2452 66.5154 19.8018 66.0286C20.1501 67.078 20.6015 68.1275 21.1373 69.1368C22.1422 71.0296 23.4335 72.761 24.8729 74.0719C24.7852 73.6524 24.7322 73.2344 24.7177 72.8207ZM25.6013 72.4826C25.6049 72.3007 25.6174 72.121 25.6393 71.9439C25.8399 72.2233 26.0444 72.4997 26.2526 72.7732L26.2354 72.7709C26.2202 72.8843 26.212 72.9995 26.2104 73.1164C26.1259 73.0344 26.0412 72.9496 25.9563 72.8622C25.8376 72.74 25.7192 72.6133 25.6013 72.4826ZM26.4599 74.514C26.2171 74.3237 25.9771 74.1158 25.741 73.8937C25.8197 74.2704 25.9306 74.6529 26.0718 75.0391C26.3577 75.2407 26.6466 75.4241 26.9377 75.5878C26.7432 75.2265 26.5812 74.867 26.4599 74.514ZM28.6944 75.6608C28.4068 75.5991 28.118 75.5 27.8299 75.3687C27.9892 75.6466 28.1737 75.9339 28.3823 76.2286C28.7504 76.3478 29.1196 76.4331 29.4885 76.4821C29.2196 76.2125 28.9549 75.9387 28.6944 75.6608ZM25.3382 75.6024C25.2073 75.5055 25.0775 75.4056 24.949 75.3026C24.8596 75.231 24.7707 75.1579 24.6823 75.0834C24.9757 75.4513 25.2756 75.8139 25.5817 76.1709C25.4947 75.982 25.4134 75.7924 25.3382 75.6024ZM27.8286 76.975C27.457 76.8391 27.0902 76.6741 26.7297 76.4835L26.7452 76.5119C27.4453 77.7937 28.4293 79.0607 29.5927 80.2198C30.9851 81.4366 32.4637 82.557 34.0182 83.5708C34.3051 83.7311 34.594 83.8827 34.884 84.0246C34.3871 83.4775 33.9584 82.8994 33.6182 82.2965C33.0219 81.903 32.4335 81.477 31.8653 81.029C30.2935 79.7896 28.858 78.3676 27.8286 76.975ZM30.4506 77.4128C30.0511 77.4281 29.6534 77.4043 29.259 77.3451C30.1424 78.3725 31.2332 79.402 32.414 80.333C32.5969 80.4772 32.7817 80.6189 32.9679 80.7576C32.8414 80.3099 32.7665 79.8526 32.7499 79.3878C31.9564 78.7608 31.1893 78.1018 30.4506 77.4128ZM83.0132 78.5005C82.3647 78.8549 81.7023 79.1357 81.0365 79.3247C80.514 79.8119 79.9616 80.2837 79.3926 80.7308C78.5205 81.416 77.6036 82.0475 76.688 82.5889C76.4081 83.0752 76.0723 83.5417 75.6906 83.9861C77.1612 83.3597 78.6333 82.4764 79.9832 81.4222C81.1087 80.5432 82.1415 79.5514 83.0132 78.5005ZM78.8451 80.0339C79.0282 79.89 79.2093 79.7437 79.3879 79.5953C78.9738 79.6111 78.5618 79.5854 78.1547 79.5138C77.9646 79.6623 77.7731 79.8089 77.5801 79.9537C77.5351 80.3567 77.4505 80.751 77.3303 81.1358C77.8422 80.7923 78.3502 80.4228 78.8451 80.0339ZM73.9372 84.4947C74.2962 84.1799 74.6262 83.8536 74.9239 83.5174C74.7423 83.6005 74.562 83.679 74.3833 83.7525C73.9983 83.9109 73.6148 84.0488 73.2382 84.1605C73.0933 84.2678 72.9443 84.3731 72.7918 84.4764C72.5398 84.647 72.2759 84.8138 72.0017 84.9762C72.5632 84.9253 73.1461 84.819 73.7433 84.6613C73.8088 84.6062 73.8734 84.5506 73.9372 84.4947ZM76.0309 81.9463C75.6698 82.1543 75.3106 82.3465 74.9566 82.5207C75.2437 82.1399 75.4648 81.7449 75.6021 81.3385C75.9152 81.1343 76.225 80.9254 76.5314 80.7119C76.4134 81.132 76.2451 81.5441 76.0309 81.9463ZM70.2055 84.934C70.5116 84.7853 70.8091 84.6315 71.0959 84.4733C70.7456 84.4567 70.4155 84.3976 70.1121 84.289C69.803 84.4226 69.4918 84.552 69.1783 84.6773C69.5043 84.7938 69.8475 84.8788 70.2055 84.934ZM72.8367 83.3538C72.4133 83.4714 72.0195 83.546 71.6607 83.5763C72.4349 83.198 73.1938 82.7933 73.9362 82.3633C73.6355 82.6942 73.2669 83.026 72.8367 83.3538ZM68.0143 85.1198C68.297 85.2778 68.5914 85.41 68.8959 85.5178C68.342 85.7443 67.7711 85.9535 67.1928 86.1422C67.1179 86.1666 67.043 86.1907 66.968 86.2144C67.1461 85.9317 67.3021 85.6349 67.4336 85.3238C67.6279 85.2574 67.8215 85.1894 68.0143 85.1198ZM64.0402 87.8457C63.5594 88.1511 63.0311 88.4237 62.463 88.663C62.358 88.7072 62.2519 88.7502 62.1446 88.792C61.7099 88.7944 61.2838 88.7778 60.8695 88.7413C60.5444 88.7127 60.2279 88.6721 59.9212 88.6192C60.4287 88.5258 60.9179 88.4141 61.3817 88.2838C61.598 88.223 61.8105 88.1577 62.0179 88.0877C62.6646 88.0489 63.3443 87.9665 64.0402 87.8457ZM64.3578 86.8856C64.7469 86.809 65.1412 86.7204 65.5374 86.6206C65.8038 86.3349 66.0385 86.0311 66.2381 85.7095C65.8821 85.8177 65.5238 85.9206 65.1633 86.0181C64.9542 86.3371 64.6814 86.6255 64.3578 86.8856ZM59.0326 87.8668C58.6462 87.9225 58.2503 87.968 57.848 88.0035C57.4014 87.801 56.9943 87.5588 56.6335 87.2758C56.9726 87.2658 57.3106 87.2513 57.6473 87.2322C58.03 87.5184 58.5008 87.7256 59.0326 87.8668ZM59.5399 87.0761C60.1436 87.2014 60.8679 87.2495 61.69 87.2168C61.7418 87.2147 61.7938 87.2123 61.8461 87.2096C62.4869 86.9855 63.0359 86.7244 63.4775 86.4316C62.189 86.7153 60.8752 86.9315 59.5399 87.0761ZM59.7599 89.4906C59.0317 89.3643 58.3383 89.1716 57.6994 88.9051C56.9873 88.9611 56.2614 88.9866 55.5378 88.9823C54.6287 88.9769 53.7185 88.9245 52.8395 88.8253C52.3345 89.061 51.7952 89.2455 51.231 89.3833C52.6036 89.7065 54.0826 89.878 55.5698 89.8912C56.9978 89.9038 58.4235 89.7705 59.7599 89.4906ZM42.7322 87.8269C44.1942 88.3177 45.6988 88.6425 47.1425 88.7637C46.5914 88.4461 46.0834 88.0892 45.6325 87.6924C44.5966 87.4665 43.5363 87.1566 42.5041 86.7841C42.0234 86.6106 41.5474 86.4231 41.0815 86.2233C40.4579 86.3002 39.813 86.3011 39.1577 86.2362C40.1049 86.7747 41.1266 87.2463 42.1836 87.6342C42.3659 87.6997 42.5488 87.7639 42.7322 87.8269ZM39.271 85.3571C38.7041 85.3026 38.1198 85.193 37.5246 85.0327C37.4148 85.0031 37.3047 84.9718 37.1945 84.9388C36.8501 84.6736 36.5241 84.3986 36.2197 84.1152C35.9808 83.893 35.7562 83.6665 35.5467 83.4363C36.0044 83.6744 36.4589 83.8869 36.9047 84.0691C37.1127 84.154 37.3202 84.233 37.5268 84.3052C38.0608 84.672 38.6477 85.0247 39.271 85.3571ZM40.1116 84.7949C40.4657 84.9736 40.8312 85.146 41.2051 85.3107C41.6739 85.2357 42.1221 85.1109 42.5447 84.933C42.1351 84.7784 41.7291 84.6167 41.3266 84.448L41.3735 84.5721C40.9872 84.7179 40.5628 84.788 40.1116 84.7949ZM35.3074 82.2963C34.9686 82.1029 34.6284 81.8956 34.2895 81.6765C34.0238 81.1705 33.8338 80.6549 33.7286 80.1349C34.0011 80.3358 34.2766 80.5331 34.5548 80.7267L34.5542 80.7268C34.6562 81.263 34.9224 81.7893 35.3074 82.2963ZM35.9184 81.6309C36.3269 82.2098 36.9657 82.8161 37.8034 83.4167L37.8628 83.459L37.9308 83.5069C38.7449 83.7816 39.4794 83.919 40.1029 83.9086C38.6546 83.2384 37.2573 82.4767 35.9184 81.6309ZM42.5834 85.8694C42.657 85.8967 42.7309 85.9238 42.8049 85.9505C43.3844 86.1596 43.9708 86.3475 44.5542 86.5107C44.3113 86.1709 44.1047 85.81 43.9398 85.4277C43.7883 85.3774 43.6372 85.3261 43.4866 85.274L43.5671 85.4138C43.2508 85.5957 42.9222 85.7469 42.5834 85.8694ZM46.051 86.8752C45.6974 86.5428 45.3935 86.1856 45.1455 85.8047C45.4667 85.8991 45.7896 85.9892 46.1143 86.075C46.3626 86.4454 46.7068 86.7743 47.1227 87.0649C46.7719 87.0136 46.4138 86.95 46.051 86.8752ZM49.3258 88.1032C48.9745 88.111 48.613 88.1014 48.2457 88.077C48.0442 88.0636 47.8396 88.0456 47.6323 88.0232C47.9746 88.2179 48.3389 88.3987 48.7228 88.5651C48.9011 88.6424 49.0832 88.7164 49.2688 88.7871C49.8663 88.7459 50.4381 88.6619 50.9773 88.5331C50.5469 88.4448 50.1317 88.3434 49.7364 88.229C49.5977 88.1889 49.4607 88.147 49.3258 88.1032ZM49.456 87.2127C48.8321 87.0012 48.297 86.7586 47.8631 86.4911C48.8712 86.705 49.8947 86.8776 50.9315 87.007C50.5028 87.1232 50.0076 87.1918 49.456 87.2127ZM52.602 87.1769C52.2989 87.4143 51.9443 87.6002 51.5501 87.7414C51.918 87.8084 52.2971 87.8662 52.6844 87.9144C53.0557 87.7239 53.4 87.502 53.7133 87.2477C53.3414 87.2296 52.9709 87.206 52.602 87.1769ZM54.9571 87.2875C55.0896 87.2896 55.2223 87.2909 55.3551 87.2915C55.6218 87.588 55.9184 87.8538 56.2407 88.0906C56.0086 88.0956 55.7759 88.0974 55.5431 88.0961C55.0693 88.0933 54.5965 88.0773 54.1296 88.0483C54.4264 87.8209 54.7032 87.5678 54.9571 87.2875ZM39.3348 14.7971C40.2961 14.2507 41.3342 13.7731 42.408 13.3819C44.0254 12.7928 45.7103 12.4048 47.3197 12.2696C46.7685 12.5872 46.2605 12.9442 45.8095 13.341C44.7738 13.5669 43.7136 13.8767 42.6815 14.2492C42.2008 14.4227 41.7249 14.6103 41.2589 14.81C40.6352 14.7331 39.9902 14.7322 39.3348 14.7971ZM42.7608 15.164C42.8345 15.1366 42.9083 15.1096 42.9823 15.0829C43.5617 14.8737 44.148 14.6859 44.7312 14.5228C44.5046 14.8399 44.3096 15.1754 44.1505 15.5295C44.0042 15.5771 43.8582 15.6256 43.7126 15.6749L43.7445 15.6196C43.4283 15.4376 43.0996 15.2864 42.7608 15.164ZM47.8094 13.0102C48.1517 12.8155 48.516 12.6347 48.9 12.4682C49.0783 12.3909 49.2604 12.3169 49.4459 12.2462C50.0434 12.2874 50.6152 12.3714 51.1543 12.5002C50.7239 12.5885 50.3088 12.6899 49.9135 12.8042C49.7748 12.8444 49.6378 12.8863 49.5027 12.9301C49.1516 12.9224 48.7903 12.9319 48.4231 12.9564C48.2215 12.9698 48.0168 12.9878 47.8094 13.0102ZM47.2996 13.9685C46.9489 14.0198 46.5908 14.0834 46.228 14.1582C45.897 14.4694 45.6094 14.8024 45.3706 15.1563C45.6907 15.0644 46.0126 14.9768 46.3361 14.8935C46.5803 14.5495 46.9083 14.242 47.2996 13.9685ZM51.7273 13.2919C52.0951 13.2248 52.4742 13.1671 52.8614 13.1189C53.2258 13.3058 53.5641 13.5229 53.8726 13.7712C53.4987 13.7878 53.1262 13.81 52.7553 13.8377C52.4575 13.6092 52.1112 13.4293 51.7273 13.2919ZM51.0341 14.0068C50.6228 13.9024 50.1529 13.8403 49.633 13.8206C49.0617 14.0143 48.5647 14.2341 48.1519 14.4752C49.0999 14.2821 50.0611 14.1254 51.0341 14.0068ZM41.3825 15.7226C41.0087 15.8874 40.6432 16.0597 40.2892 16.2384C40.7402 16.2453 41.1645 16.3154 41.5506 16.4611L41.5398 16.4898C41.8998 16.3416 42.2627 16.1989 42.6283 16.0619C42.2334 15.9043 41.8168 15.7921 41.3825 15.7226ZM37.7047 16.7278C38.2386 16.3611 38.8253 16.0086 39.4484 15.6762C38.8815 15.7307 38.2972 15.8404 37.7021 16.0007C37.5921 16.0303 37.4819 16.0616 37.3714 16.0946C37.0271 16.3599 36.7012 16.6348 36.3968 16.9181C36.158 17.1403 35.9334 17.3668 35.7239 17.5969C36.1816 17.3588 36.6361 17.1463 37.0819 16.9642C37.2901 16.8792 37.4979 16.8001 37.7047 16.7278ZM38.1087 17.5261C38.8391 17.2798 39.5053 17.1439 40.0848 17.1261C38.7665 17.7371 37.4905 18.4238 36.2624 19.1808C36.6697 18.6698 37.2494 18.141 37.9809 17.6166C38.0231 17.5864 38.0657 17.5562 38.1087 17.5261ZM34.7649 20.1546C34.8851 19.6708 35.1364 19.1958 35.4851 18.7366C35.1461 18.9301 34.8058 19.1375 34.4667 19.3567C34.2287 19.81 34.0515 20.2709 33.9414 20.7357C34.2132 20.5384 34.4877 20.3446 34.7649 20.1546ZM51.4081 11.6501C52.7807 11.3268 54.2597 11.1554 55.7469 11.1422C57.175 11.1295 58.6007 11.2629 59.9372 11.5428C59.209 11.6691 58.5157 11.8617 57.8769 12.1282C57.1647 12.0722 56.4386 12.0467 55.715 12.051C54.8058 12.0564 53.8955 12.1088 53.0165 12.208C52.5116 11.9723 51.9723 11.7878 51.4081 11.6501ZM54.3067 12.985C54.7736 12.956 55.2464 12.94 55.7202 12.9372C55.9532 12.9358 56.186 12.9376 56.4182 12.9426C56.0986 13.1775 55.8042 13.4409 55.5392 13.7344L55.5325 13.7344C55.3968 13.7344 55.2612 13.7351 55.1259 13.7366C54.8743 13.46 54.6003 13.2099 54.3067 12.985ZM85.9259 28.3754C85.6779 28.0507 85.4245 27.7358 85.1675 27.4336C85.2668 27.8737 85.2983 28.3026 85.2474 28.7122L85.1472 28.6998C85.397 29.0383 85.6411 29.3813 85.8795 29.7286C85.9479 29.2879 85.9621 28.8356 85.9259 28.3754ZM84.0845 25.0363C84.5666 25.4692 85.0472 25.9569 85.5167 26.4846C85.3306 25.9463 85.0867 25.4041 84.791 24.8631C84.7365 24.7633 84.6802 24.6636 84.6222 24.5641C84.2834 24.2916 83.9396 24.0394 83.5926 23.81C83.3204 23.63 83.0475 23.4649 82.7745 23.3153C83.1135 23.7043 83.4268 24.0962 83.7086 24.4868C83.8401 24.669 83.9657 24.8524 84.0845 25.0363ZM83.4035 25.6166C83.8502 26.3251 84.1522 26.9908 84.2935 27.5875C83.3167 26.3637 82.2635 25.2037 81.141 24.1146C81.7911 24.3786 82.5185 24.8521 83.2858 25.5138C83.325 25.5476 83.3642 25.5819 83.4035 25.6166ZM79.925 22.9866C80.4651 22.9635 81.0334 23.0984 81.6106 23.3509C81.3429 23.0669 81.0614 22.7848 80.7687 22.5067C80.2204 22.3688 79.6805 22.3052 79.1557 22.323C79.4152 22.5407 79.6717 22.7619 79.925 22.9866ZM79.0222 20.9994C79.2054 21.1432 79.3864 21.2896 79.565 21.438C79.1049 21.4204 78.6474 21.4541 78.1962 21.545C78.0554 21.4347 77.9137 21.3254 77.7713 21.2171C77.7313 20.7663 77.6416 20.3261 77.5078 19.8977C78.0195 20.2411 78.5274 20.6106 79.0222 20.9994ZM79.5698 20.3025C78.6978 19.6173 77.781 18.986 76.8655 18.4446C76.5856 17.9583 76.2498 17.4917 75.8681 17.0472C76.7139 17.4076 77.5603 17.8528 78.3835 18.3667C79.7984 19.3743 81.144 20.4729 82.4116 21.6541C82.6832 21.9415 82.9435 22.2349 83.1907 22.533C82.5422 22.1785 81.8795 21.8976 81.2136 21.7085C80.6911 21.2214 80.1388 20.7496 79.5698 20.3025ZM76.7473 20.466C76.6288 19.9959 76.4471 19.5354 76.2084 19.0872C75.8472 18.8791 75.4879 18.6868 75.1338 18.5126C75.4532 18.9364 75.691 19.3778 75.8226 19.8328C76.1342 20.0393 76.4425 20.2504 76.7473 20.466ZM74.5604 17.2808C74.1754 17.1224 73.792 16.9845 73.4154 16.8727C73.2704 16.7655 73.1214 16.6602 72.9689 16.5569C72.717 16.3863 72.4531 16.2195 72.179 16.0571C72.7405 16.1081 73.3234 16.2143 73.9207 16.3721C73.9862 16.4272 74.0509 16.4827 74.1147 16.5386C74.4736 16.8535 74.8037 17.1798 75.1014 17.5161C74.9197 17.4329 74.7392 17.3543 74.5604 17.2808ZM74.285 18.8676C73.9571 18.4714 73.5297 18.0725 73.0139 17.6795C72.5155 17.541 72.058 17.4622 71.6504 17.445C72.5497 17.8842 73.4286 18.359 74.285 18.8676ZM70.2203 16.7701L70.2269 16.7873C69.911 16.6494 69.5927 16.5158 69.2722 16.3867C69.6229 16.2544 69.9941 16.1593 70.3828 16.0994C70.6889 16.2481 70.9863 16.4018 71.2731 16.56C70.8961 16.5778 70.5424 16.645 70.2203 16.7701ZM69.0732 15.5155C68.7466 15.6313 68.4315 15.7749 68.1301 15.9485C67.9663 15.8888 67.8019 15.8302 67.6371 15.7728C67.5002 15.4386 67.3353 15.1207 67.1451 14.8189C67.2201 14.8426 67.295 14.8666 67.3699 14.8911C67.9483 15.0798 68.5193 15.289 69.0732 15.5155ZM72.2678 15.1756C71.6729 15.121 71.0895 15.1219 70.5268 15.186C69.6121 14.7555 68.6358 14.3719 67.6448 14.0486C67.159 13.89 66.6682 13.7455 66.1778 13.6167C65.733 13.1728 65.2247 12.7758 64.6678 12.4242C65.762 12.5838 66.8746 12.845 67.9622 13.1963C69.4991 13.6928 70.9742 14.3655 72.2678 15.1756ZM65.7145 14.4126C65.3183 14.3128 64.9241 14.2242 64.5349 14.1476C64.8755 14.4214 65.1599 14.7266 65.3729 15.0656C65.7345 15.1658 66.0939 15.2713 66.451 15.3822C66.2438 15.0389 65.997 14.7157 65.7145 14.4126ZM62.1951 12.9456C62.8417 12.9843 63.5213 13.0668 64.2172 13.1875C63.7365 12.8821 63.2081 12.6096 62.6401 12.3703C62.5352 12.3261 62.429 12.2831 62.3217 12.2413C61.8871 12.2389 61.4611 12.2556 61.0469 12.292C60.7218 12.3206 60.4054 12.3613 60.0987 12.4141C60.606 12.5075 61.0952 12.6192 61.5588 12.7495C61.7752 12.8103 61.9876 12.8756 62.1951 12.9456ZM62.0232 13.8236C62.6996 14.0602 63.2736 14.338 63.7271 14.6507C62.4031 14.3494 61.0519 14.1195 59.6778 13.9654C60.2892 13.834 61.0271 13.7831 61.8672 13.8165C61.9189 13.8186 61.971 13.8209 62.0232 13.8236ZM57.8201 13.8044C58.2036 13.5164 58.6759 13.3082 59.2098 13.1665C58.8235 13.1108 58.4277 13.0653 58.0255 13.0298C57.5795 13.232 57.173 13.4738 56.8126 13.7563C57.1496 13.7678 57.4854 13.7839 57.8201 13.8044Z" fill="#E41F7B"/>
</svg>
